<svg display="block" role="presentation" viewBox="0 0 12 12" xmlns="http://www.w3.org/2000/svg"><path d="M 9.635 6.797 L 0.791 6.797 C 0.567 6.797 0.379 6.721 0.228 6.569 C 0.077 6.417 0.001 6.229 0 6.005 C -0.001 5.782 0.075 5.594 0.228 5.442 C 0.38 5.29 0.568 5.214 0.791 5.214 L 9.635 5.214 L 5.757 1.336 C 5.599 1.178 5.523 0.993 5.529 0.782 C 5.536 0.571 5.618 0.387 5.777 0.228 C 5.935 0.083 6.12 0.007 6.331 0 C 6.542 -0.006 6.727 0.07 6.885 0.228 L 12.108 5.451 C 12.187 5.531 12.243 5.616 12.277 5.709 C 12.31 5.801 12.326 5.9 12.326 6.005 C 12.325 6.111 12.309 6.21 12.277 6.302 C 12.244 6.394 12.188 6.48 12.108 6.559 L 6.885 11.782 C 6.74 11.927 6.559 12 6.341 12 C 6.124 12 5.936 11.927 5.777 11.782 C 5.619 11.624 5.54 11.436 5.54 11.219 C 5.54 11.002 5.619 10.813 5.777 10.655 Z" fill="var(--token-c0272c60-ef34-4bbd-b16c-142c2fba737e, rgb(38, 38, 38))" height="12.000000000000005px" id="ayIlSV6ZO" width="12.325634455879628px"/></svg>