<svg display="block" role="presentation" viewBox="0 0 100 40" xmlns="http://www.w3.org/2000/svg"><path d="M 4.77 4.235 C 5.03 3.001 6.26 2 7.513 2 L 14.325 2 L 8.66 28.823 L 1.848 28.823 C 0.594 28.823 -0.212 27.823 0.049 26.588 Z M 27.477 4.235 C 27.738 3.001 28.967 2 30.22 2 L 37.032 2 L 31.367 28.823 L 24.555 28.823 C 23.301 28.823 22.495 27.823 22.756 26.588 Z M 72.892 4.235 C 73.152 3.001 74.38 2 75.635 2 L 82.447 2 L 76.782 28.823 L 69.969 28.823 C 68.715 28.823 67.91 27.823 68.171 26.588 L 72.891 4.235 Z M 39.303 2 L 46.115 2 C 47.369 2 48.175 3 47.914 4.235 L 43.193 26.588 C 42.933 27.823 41.704 28.823 40.45 28.823 L 33.638 28.823 Z M 84.718 2 L 91.53 2 C 92.784 2 93.59 3 93.329 4.235 L 88.607 26.588 C 88.347 27.823 87.119 28.823 85.865 28.823 L 79.052 28.823 Z M 50.185 4.235 C 50.445 3.001 51.673 2 52.927 2 L 59.74 2 L 54.074 28.823 L 47.262 28.823 C 46.008 28.823 45.202 27.823 45.464 26.588 L 50.184 4.235 Z M 62.01 2 L 68.823 2 C 70.077 2 70.882 3 70.621 4.235 L 63.54 37.765 C 63.278 38.999 62.05 40 60.796 40 L 53.983 40 Z M 12.819 19.882 L 21.902 19.882 L 20.486 26.588 C 20.225 27.823 18.996 28.823 17.743 28.823 L 10.93 28.823 L 12.818 19.883 Z M 44.52 31.059 L 53.602 31.059 L 51.714 40 L 44.902 40 C 43.647 40 42.842 39 43.103 37.765 L 44.519 31.059 Z M 69.174 33.138 L 68.024 38.584 C 67.974 38.818 67.896 38.882 67.658 38.882 L 67.135 38.882 C 66.897 38.882 66.845 38.818 66.895 38.584 L 68.045 33.138 C 68.095 32.905 68.173 32.84 68.411 32.84 L 68.934 32.84 C 69.172 32.84 69.224 32.905 69.174 33.138 Z M 70.686 36.812 L 70.579 36.812 C 70.465 36.812 70.425 36.844 70.402 36.957 L 70.058 38.584 C 70.008 38.818 69.929 38.882 69.692 38.882 L 69.168 38.882 C 68.931 38.882 68.879 38.818 68.928 38.584 L 70.078 33.138 C 70.128 32.905 70.208 32.84 70.445 32.84 L 71.525 32.84 C 72.769 32.84 73.24 33.283 73.01 34.37 L 72.818 35.281 C 72.588 36.369 71.93 36.811 70.686 36.811 Z M 71.002 34.113 L 70.702 35.539 C 70.677 35.652 70.703 35.684 70.818 35.684 L 70.99 35.684 C 71.39 35.684 71.605 35.523 71.692 35.112 L 71.812 34.54 C 71.899 34.13 71.753 33.968 71.352 33.968 L 71.18 33.968 C 71.066 33.968 71.026 34 71.002 34.113 Z M 74.74 34.991 L 75.59 35.926 C 76.036 36.409 76.098 36.699 75.984 37.239 L 75.954 37.384 C 75.739 38.399 75.227 38.963 74.04 38.963 C 72.854 38.963 72.561 38.488 72.835 37.19 L 72.869 37.03 C 72.919 36.796 72.998 36.731 73.235 36.731 L 73.791 36.731 C 74.029 36.731 74.081 36.796 74.031 37.029 L 73.956 37.384 C 73.888 37.706 73.992 37.835 74.278 37.835 C 74.565 37.835 74.721 37.715 74.783 37.425 L 74.815 37.271 C 74.863 37.045 74.837 36.933 74.591 36.667 L 73.791 35.805 C 73.343 35.33 73.286 35.055 73.4 34.515 L 73.437 34.339 C 73.652 33.324 74.164 32.759 75.35 32.759 C 76.537 32.759 76.83 33.235 76.556 34.532 L 76.522 34.693 C 76.472 34.927 76.393 34.991 76.156 34.991 L 75.599 34.991 C 75.362 34.991 75.31 34.927 75.359 34.693 L 75.434 34.339 C 75.502 34.016 75.399 33.888 75.112 33.888 C 74.826 33.888 74.669 34.008 74.608 34.298 L 74.579 34.435 C 74.529 34.669 74.555 34.782 74.74 34.991 Z M 79.532 33.138 C 79.582 32.905 79.66 32.84 79.898 32.84 L 80.421 32.84 C 80.659 32.84 80.711 32.905 80.661 33.138 L 79.805 37.191 C 79.531 38.488 79.038 38.963 77.851 38.963 C 76.665 38.963 76.372 38.488 76.646 37.19 L 77.502 33.138 C 77.552 32.905 77.631 32.84 77.868 32.84 L 78.392 32.84 C 78.629 32.84 78.681 32.905 78.632 33.138 L 77.735 37.384 C 77.667 37.706 77.779 37.835 78.09 37.835 C 78.392 37.835 78.567 37.706 78.635 37.384 Z M 82.938 36.417 C 82.941 36.482 82.962 36.497 83.003 36.497 C 83.043 36.497 83.072 36.482 83.102 36.417 L 84.516 33.05 C 84.585 32.88 84.667 32.84 84.872 32.84 L 85.666 32.84 C 85.903 32.84 85.955 32.905 85.906 33.138 L 84.756 38.584 C 84.706 38.818 84.626 38.882 84.389 38.882 L 84.013 38.882 C 83.776 38.882 83.723 38.818 83.773 38.584 L 84.325 35.974 C 84.34 35.902 84.327 35.885 84.278 35.885 C 84.245 35.885 84.208 35.902 84.188 35.958 L 83.046 38.617 C 82.964 38.81 82.859 38.882 82.622 38.882 L 82.4 38.882 C 82.154 38.882 82.08 38.81 82.08 38.617 L 82.052 35.957 C 82.047 35.901 82.034 35.885 81.993 35.885 C 81.944 35.885 81.924 35.902 81.909 35.974 L 81.358 38.584 C 81.308 38.818 81.23 38.882 80.992 38.882 L 80.616 38.882 C 80.378 38.882 80.326 38.818 80.376 38.584 L 81.526 33.138 C 81.576 32.905 81.655 32.84 81.892 32.84 L 82.572 32.84 C 82.858 32.84 82.95 32.905 82.948 33.187 L 82.937 36.417 Z M 100 2 C 100 3.105 99.11 4 98.013 4 C 97.484 3.998 96.978 3.787 96.605 3.412 C 96.233 3.037 96.024 2.529 96.026 2 C 96.026 0.895 96.916 0 98.013 0 C 99.11 0 100 0.895 100 2 Z" fill="var(--token-8bb67e8f-99b1-47da-9543-9b889df907ed, rgb(166, 166, 166))" height="40px" id="g2VTW3hFf" transform="translate(0 0)" width="100.00008198322593px"/></svg>