<svg display="block" role="presentation" viewBox="0 0 176 40" xmlns="http://www.w3.org/2000/svg"><path d="M 26 28 L 26 38 L 15 38 C 6.716 38 0 31.284 0 23 L 0 0 L 10 0 L 10 23 C 10 25.761 12.239 28 15 28 Z M 45 10 C 40.029 10 36 14.029 36 19 C 36 23.971 40.029 28 45 28 C 49.971 28 54 23.971 54 19 C 54 14.029 49.971 10 45 10 Z M 26 19 C 26 8.507 34.507 0 45 0 C 55.493 0 64 8.507 64 19 C 64 29.493 55.493 38 45 38 C 34.507 38 26 29.493 26 19 Z M 153 10 C 148.029 10 144 14.029 144 19 C 144 23.971 148.029 28 153 28 C 157.971 28 162 23.971 162 19 C 162 14.029 157.971 10 153 10 Z M 134 19 C 134 8.507 142.507 0 153 0 C 163.493 0 172 8.507 172 19 C 172 29.493 163.493 38 153 38 C 142.507 38 134 29.493 134 19 Z M 113 0 C 123.493 0 132 8.507 132 19 L 132 20.261 C 132 23.377 131.233 26.446 129.768 29.196 L 124 40 L 118.654 37.144 C 116.868 37.7 114.969 38 113 38 L 85 38 C 74.507 38 66 29.493 66 19 C 66 8.507 74.507 0 85 0 Z M 122 19 C 122 14.029 117.971 10 113 10 L 85 10 C 80.029 10 76 14.029 76 19 C 76 23.971 80.029 28 85 28 L 113 28 C 117.943 28 121.962 24.013 122 19.07 Z" fill="var(--token-8bb67e8f-99b1-47da-9543-9b889df907ed, rgb(166, 166, 166))" height="40px" id="EGRkYhDLj" width="172px"/><path d="M 5 2.5 C 5 3.881 3.881 5 2.5 5 C 1.119 5 0 3.881 0 2.5 C 0 1.119 1.119 0 2.5 0 C 3.881 0 5 1.119 5 2.5 Z" fill="var(--token-8bb67e8f-99b1-47da-9543-9b889df907ed, rgb(166, 166, 166))" height="5px" id="bbbHo7dyM" transform="translate(171 0)" width="5px"/></svg>