<svg display="block" role="presentation" viewBox="0 0 169 40" xmlns="http://www.w3.org/2000/svg"><path d="M 10.015 0 L 10.015 37.5 L 0 37.5 L 0 0 Z" fill="var(--token-8bb67e8f-99b1-47da-9543-9b889df907ed, rgb(166, 166, 166))" height="37.5px" id="uMtsQJDRo" transform="translate(0 2.5)" width="10.0148px"/><path d="M 0 0 L 21.282 0 C 28.195 0 33.8 5.596 33.8 12.5 C 33.8 19.404 28.195 25 21.282 25 L 10.015 25 L 10.015 37.5 L 0 37.5 Z M 10.015 15 L 21.282 15 C 22.664 15 23.785 13.881 23.785 12.5 C 23.785 11.119 22.664 10 21.282 10 L 10.015 10 Z" fill="var(--token-8bb67e8f-99b1-47da-9543-9b889df907ed, rgb(166, 166, 166))" height="37.5px" id="b4vB0o7HD" transform="translate(15.022 2.5)" width="33.800000000000004px"/><path d="M 10.015 0 L 10.015 19.375 C 10.015 23.862 13.658 27.5 18.152 27.5 C 22.646 27.5 26.289 23.862 26.289 19.375 L 26.289 0 L 36.304 0 L 36.304 19.375 C 36.304 29.385 28.177 37.5 18.152 37.5 C 8.127 37.5 0 29.385 0 19.375 L 0 0 Z" fill="var(--token-8bb67e8f-99b1-47da-9543-9b889df907ed, rgb(166, 166, 166))" height="37.5px" id="aouIC6Zw4" transform="translate(76.363 2.5)" width="36.304px"/><path d="M 10.015 17.5 C 10.015 7.835 17.861 0 27.541 0 L 30.044 0 L 30.044 10 L 27.541 10 C 23.392 10 20.03 13.358 20.03 17.5 L 20.03 18.75 C 20.03 29.105 11.622 37.5 1.252 37.5 L 0 37.5 L 0 27.5 L 1.252 27.5 C 6.091 27.5 10.015 23.582 10.015 18.75 Z" fill="var(--token-8bb67e8f-99b1-47da-9543-9b889df907ed, rgb(166, 166, 166))" height="37.5px" id="XMpynIESm" transform="translate(42.563 2.5)" width="30.044399999999996px"/><path d="M 7.511 3.75 C 7.511 5.821 5.83 7.5 3.755 7.5 C 1.681 7.5 0 5.821 0 3.75 C 0 1.679 1.681 0 3.755 0 C 5.83 0 7.511 1.679 7.511 3.75 Z" fill="var(--token-8bb67e8f-99b1-47da-9543-9b889df907ed, rgb(166, 166, 166))" height="7.5px" id="SS2_B3iax" transform="translate(161.489 0)" width="7.510999999999996px"/><path d="M 10.296 37.179 L 15.075 17.197 L 18.628 29.218 C 20.746 36.388 30.917 36.388 33.036 29.218 L 36.588 17.197 L 41.367 37.179 L 51.663 37.179 L 44.149 5.758 C 42.362 -1.714 31.817 -1.991 29.639 5.378 L 25.832 18.262 L 22.024 5.378 C 19.847 -1.991 9.301 -1.714 7.514 5.758 L 0 37.179 Z" fill="var(--token-8bb67e8f-99b1-47da-9543-9b889df907ed, rgb(166, 166, 166))" height="37.17859535984961px" id="bcBbsnZ2Z" transform="translate(113.124 2.821)" width="51.66300000000001px"/></svg>