<svg display="block" role="presentation" viewBox="0 0 235 41" xmlns="http://www.w3.org/2000/svg"><path d="M 10.108 0 C 10.108 7.62 10.108 10.627 0 10.627 C 10.108 10.627 10.108 13.635 10.108 21.255 C 10.108 13.68 10.108 10.627 20.058 10.627 C 10.108 10.627 10.108 7.574 10.108 0 Z" fill="var(--token-8bb67e8f-99b1-47da-9543-9b889df907ed, rgb(166, 166, 166))" height="21.254799999999996px" id="PuLZcHQWg" transform="translate(80.304 12.743)" width="20.057599999999994px"/><path d="M 40.504 33.996 C 37.009 33.996 33.935 33.297 31.284 31.898 C 28.662 30.471 26.609 28.49 25.123 25.956 C 24.884 25.535 24.664 25.102 24.464 24.658 L 23.29 33.384 L 0 33.384 L 0 32.947 L 0.044 32.947 C 1.092 32.947 1.937 32.67 2.578 32.117 C 3.219 31.563 3.539 30.762 3.539 29.714 L 3.539 4.544 C 3.539 3.496 3.219 2.651 2.578 2.01 C 1.937 1.369 1.092 1.049 0.044 1.049 L 0 1.049 L 0 0.612 L 13.939 0.612 L 13.939 1.049 L 13.764 1.049 C 12.716 1.049 11.871 1.369 11.23 2.01 C 10.589 2.651 10.269 3.496 10.269 4.544 L 10.269 29.888 C 10.269 30.821 10.487 31.549 10.924 32.073 C 11.39 32.568 12.191 32.816 13.327 32.816 L 14.245 32.816 C 16.838 32.816 19.023 32.015 20.8 30.413 C 22.533 28.85 23.642 26.664 24.128 23.854 C 23.335 21.799 22.938 19.513 22.938 16.998 C 22.938 13.59 23.667 10.618 25.123 8.084 C 26.609 5.52 28.662 3.539 31.284 2.141 C 33.935 0.714 37.009 0 40.504 0 C 43.916 0 46.911 0.68 49.49 2.039 C 52.241 0.68 55.436 0 59.075 0 C 60.211 0 61.144 0.044 61.872 0.131 C 62.629 0.189 63.299 0.262 63.882 0.35 C 64.465 0.437 65.105 0.524 65.805 0.612 C 66.533 0.67 67.436 0.699 68.514 0.699 L 69.825 9.439 L 69.388 9.439 C 68.863 6.671 67.684 4.501 65.848 2.928 C 64.042 1.355 61.784 0.568 59.075 0.568 C 57.415 0.568 55.9 0.961 54.531 1.748 C 53.629 2.266 52.815 2.917 52.091 3.701 C 51.753 4.065 51.435 4.459 51.136 4.881 C 51.102 4.928 51.069 4.976 51.035 5.025 C 50.754 5.442 50.491 5.884 50.245 6.352 C 49.921 6.966 49.627 7.625 49.363 8.326 C 49.254 8.615 49.15 8.912 49.052 9.216 C 48.95 9.53 48.854 9.852 48.763 10.181 C 48.239 12.191 47.976 14.42 47.976 16.867 C 47.976 19.122 48.182 21.197 48.593 23.09 L 47.898 25.152 C 47.535 26.232 47.1 27.176 46.6 27.994 C 46.293 28.479 45.967 28.915 45.624 29.304 L 45.592 29.341 C 44.51 28.356 43.586 27.228 42.82 25.956 C 41.276 23.392 40.504 20.377 40.504 16.911 C 40.504 13.531 41.276 10.575 42.82 8.04 C 43.874 6.31 45.214 4.844 46.838 3.643 C 46.182 2.881 45.454 2.249 44.655 1.748 C 43.403 0.961 42.019 0.568 40.504 0.568 C 38.989 0.568 37.606 0.961 36.353 1.748 C 35.1 2.534 34.037 3.641 33.163 5.069 C 32.26 6.496 31.561 8.229 31.066 10.269 C 30.6 12.279 30.367 14.507 30.367 16.954 C 30.367 19.401 30.6 21.63 31.066 23.64 C 31.561 25.65 32.26 27.369 33.163 28.796 C 34.037 30.224 35.1 31.33 36.353 32.117 C 37.606 32.904 38.989 33.297 40.504 33.297 C 42.019 33.297 43.403 32.904 44.655 32.117 C 45.908 31.33 46.986 30.224 47.889 28.796 C 48.763 27.369 49.433 25.65 49.899 23.64 C 50.394 21.63 50.642 19.401 50.642 16.954 C 50.642 14.742 50.439 12.708 50.035 10.853 L 50.784 8.859 C 51.211 7.725 51.715 6.734 52.291 5.879 C 52.444 5.656 52.603 5.443 52.767 5.239 C 52.909 5.062 53.055 4.893 53.205 4.731 L 53.238 4.704 C 54.252 5.688 55.12 6.814 55.842 8.084 C 57.327 10.618 58.07 13.59 58.07 16.998 C 58.07 20.406 57.327 23.392 55.842 25.956 C 54.854 27.674 53.592 29.138 52.056 30.347 C 52.701 31.053 53.409 31.643 54.181 32.117 C 55.492 32.904 56.949 33.297 58.551 33.297 C 59.745 33.297 60.881 33.093 61.959 32.685 C 63.066 32.277 63.911 31.767 64.494 31.156 L 64.494 20.013 C 64.494 18.964 64.173 18.119 63.532 17.479 C 62.891 16.838 62.047 16.517 60.998 16.517 L 60.867 16.517 L 60.867 16.08 L 72.793 16.08 C 72.913 13.054 73.635 10.388 74.96 8.084 C 76.445 5.52 78.499 3.539 81.121 2.141 C 83.772 0.714 86.845 0 90.341 0 C 93.837 0 96.895 0.714 99.517 2.141 C 102.168 3.539 104.222 5.52 105.679 8.084 C 106.636 9.717 107.285 11.531 107.625 13.527 L 107.625 4.544 C 107.625 3.496 107.305 2.651 106.664 2.01 C 106.023 1.369 105.178 1.049 104.129 1.049 L 104.086 1.049 L 104.086 0.612 L 130.377 0.612 C 132.62 0.641 134.572 1.034 136.232 1.792 C 137.922 2.52 139.232 3.539 140.165 4.85 C 140.516 5.329 140.802 5.838 141.025 6.379 C 141.383 4.691 142.253 3.308 143.634 2.229 C 145.528 0.743 148.019 0 151.106 0 C 151.864 0 152.476 0.029 152.942 0.087 C 153.139 0.111 153.331 0.136 153.519 0.164 C 153.803 0.206 154.077 0.253 154.34 0.306 C 154.806 0.393 155.345 0.466 155.957 0.524 C 156.569 0.583 157.355 0.612 158.316 0.612 L 172.12 0.612 L 172.12 1.049 L 171.989 1.049 C 170.94 1.049 170.096 1.369 169.455 2.01 C 168.814 2.651 168.493 3.496 168.493 4.544 L 168.493 21.892 C 168.493 24.98 169.28 27.427 170.853 29.233 C 172.455 31.01 174.611 31.898 177.32 31.898 C 180.058 31.898 182.214 30.995 183.787 29.189 C 185.36 27.354 186.147 24.922 186.147 21.892 L 186.147 5.2 C 186.147 3.947 185.768 2.957 185.011 2.229 C 184.253 1.5 183.248 1.107 181.996 1.049 L 181.996 0.612 L 196.417 0.612 L 207.079 25.3 L 217.741 0.612 L 225.912 0.612 L 225.912 1.049 C 224.98 1.049 224.193 1.325 223.552 1.879 C 222.911 2.432 222.62 3.19 222.678 4.151 L 224.907 30.019 C 225.052 31.01 225.518 31.753 226.305 32.248 C 227.121 32.743 227.922 32.991 228.708 32.991 L 228.708 33.384 L 215.162 33.384 L 215.162 32.991 C 215.658 32.991 216.167 32.874 216.692 32.641 C 217.216 32.408 217.639 32.073 217.959 31.636 C 218.309 31.199 218.44 30.69 218.352 30.107 L 216.211 5.986 L 204.064 33.996 L 191.829 5.943 L 189.775 28.927 C 189.658 30.092 189.993 31.039 190.78 31.767 C 191.566 32.496 192.528 32.889 193.664 32.947 L 193.664 33.384 L 184.925 33.384 L 184.925 32.947 C 186.031 32.889 186.964 32.481 187.721 31.724 C 188.479 30.966 188.915 30.019 189.032 28.883 L 191.217 4.719 C 190.663 3.583 189.964 2.695 189.119 2.054 C 188.975 1.935 188.824 1.828 188.664 1.73 C 188.435 1.874 188.222 2.04 188.026 2.229 C 187.268 2.957 186.89 3.947 186.89 5.2 L 186.89 21.892 C 186.89 24.339 186.38 26.466 185.36 28.272 C 184.37 30.078 182.928 31.491 181.034 32.51 C 179.17 33.501 176.941 33.996 174.349 33.996 C 171.785 33.996 169.557 33.501 167.663 32.51 C 165.77 31.52 164.298 30.121 163.25 28.315 C 162.23 26.48 161.72 24.339 161.72 21.892 L 161.72 4.544 C 161.72 3.496 161.4 2.651 160.759 2.01 C 160.141 1.392 159.334 1.072 158.338 1.05 L 158.753 9.439 L 158.316 9.439 C 157.909 6.729 157.035 4.588 155.695 3.015 C 154.354 1.442 152.738 0.655 150.844 0.655 C 149.504 0.655 148.426 1.049 147.611 1.835 C 146.824 2.622 146.431 3.671 146.431 4.981 C 146.431 6.117 146.795 7.21 147.523 8.259 C 148.281 9.278 149.577 10.473 151.412 11.842 L 153.291 13.24 C 155.214 14.638 156.729 15.935 157.836 17.129 C 158.972 18.294 159.787 19.43 160.283 20.537 C 160.778 21.644 161.026 22.824 161.026 24.077 C 161.026 25.999 160.545 27.704 159.583 29.189 C 158.622 30.675 157.282 31.84 155.563 32.685 C 153.874 33.501 151.878 33.938 149.577 33.996 C 148.82 33.996 148.193 33.967 147.698 33.909 C 147.232 33.85 146.766 33.777 146.3 33.69 C 145.834 33.603 145.266 33.53 144.596 33.472 C 143.926 33.413 143.008 33.384 141.843 33.384 L 140.313 22.023 L 140.838 22.023 C 141.275 25.606 142.265 28.374 143.809 30.325 C 145.382 32.248 147.392 33.209 149.839 33.209 C 151.645 33.209 153.116 32.7 154.253 31.68 C 155.389 30.66 155.957 29.335 155.957 27.704 C 155.957 27.004 155.826 26.334 155.563 25.694 C 155.33 25.053 154.923 24.368 154.34 23.64 C 153.757 22.912 152.985 22.125 152.024 21.28 C 151.063 20.406 149.868 19.43 148.441 18.353 L 146.649 16.998 C 144.465 15.338 142.95 13.852 142.105 12.541 C 141.838 12.127 141.613 11.701 141.431 11.264 C 141.212 12.321 140.79 13.286 140.165 14.158 C 139.232 15.469 137.892 16.503 136.145 17.26 C 134.426 17.988 132.387 18.353 130.027 18.353 L 126.007 18.353 L 126.007 29.451 C 126.007 30.5 126.327 31.345 126.968 31.986 C 127.609 32.627 128.454 32.947 129.503 32.947 L 129.59 32.947 L 129.59 33.384 L 104.086 33.384 L 104.086 32.947 L 104.129 32.947 C 105.178 32.947 106.023 32.627 106.664 31.986 C 107.305 31.345 107.625 30.5 107.625 29.451 L 107.625 20.475 C 107.285 22.477 106.636 24.304 105.679 25.956 C 104.222 28.49 102.168 30.471 99.517 31.898 C 96.895 33.297 93.837 33.996 90.341 33.996 C 86.845 33.996 83.772 33.297 81.121 31.898 C 78.499 30.471 76.445 28.49 74.96 25.956 C 73.509 23.403 72.781 20.431 72.775 17.04 C 72.579 17.164 72.396 17.31 72.228 17.479 C 71.587 18.119 71.267 18.964 71.267 20.013 L 71.267 31.156 C 70.684 31.738 69.752 32.248 68.47 32.685 C 67.217 33.093 65.79 33.413 64.188 33.646 C 62.615 33.879 61.042 33.996 59.469 33.996 C 55.666 33.996 52.355 33.323 49.534 31.976 C 46.945 33.323 43.935 33.996 40.504 33.996 Z M 97.726 28.796 C 98.6 27.369 99.269 25.65 99.736 23.64 C 100.231 21.63 100.479 19.401 100.479 16.954 C 100.479 14.507 100.231 12.279 99.736 10.269 C 99.269 8.229 98.6 6.496 97.726 5.069 C 96.823 3.641 95.745 2.534 94.492 1.748 C 93.239 0.961 91.856 0.568 90.341 0.568 C 88.826 0.568 87.442 0.961 86.19 1.748 C 84.937 2.534 83.874 3.641 83 5.069 C 82.097 6.496 81.398 8.229 80.902 10.269 C 80.436 12.279 80.203 14.507 80.203 16.954 C 80.203 19.401 80.436 21.63 80.902 23.64 C 81.398 25.65 82.097 27.369 83 28.796 C 83.874 30.224 84.937 31.33 86.19 32.117 C 87.442 32.904 88.826 33.297 90.341 33.297 C 91.856 33.297 93.239 32.904 94.492 32.117 C 95.745 31.33 96.823 30.224 97.726 28.796 Z M 119.278 29.451 L 119.278 4.544 C 119.278 3.496 118.957 2.651 118.316 2.01 C 117.907 1.6 117.414 1.322 116.838 1.174 C 116.262 1.322 115.769 1.6 115.359 2.01 C 114.719 2.651 114.398 3.496 114.398 4.544 L 114.398 29.451 C 114.398 30.5 114.719 31.345 115.359 31.986 C 115.769 32.395 116.262 32.674 116.838 32.822 C 117.414 32.674 117.907 32.395 118.316 31.986 C 118.957 31.345 119.278 30.5 119.278 29.451 Z M 131.819 16.736 C 132.751 16.007 133.465 15.017 133.96 13.764 C 134.484 12.512 134.746 11.084 134.746 9.482 C 134.746 7.88 134.484 6.453 133.96 5.2 C 133.465 3.947 132.751 2.971 131.819 2.272 C 130.886 1.544 129.794 1.18 128.541 1.18 L 126.007 1.18 L 126.007 17.785 L 128.585 17.785 C 129.838 17.785 130.916 17.435 131.819 16.736 Z" fill="var(--token-8bb67e8f-99b1-47da-9543-9b889df907ed, rgb(166, 166, 166))" height="33.99581px" id="Jq8gYfbdf" transform="translate(0.071 6.373)" width="228.7077109px"/><path d="M 6.073 3.036 C 6.073 4.713 4.714 6.073 3.037 6.073 C 1.36 6.073 0 4.713 0 3.036 C 0 1.359 1.36 0 3.037 0 C 4.714 0 6.073 1.359 6.073 3.036 Z" fill="var(--token-8bb67e8f-99b1-47da-9543-9b889df907ed, rgb(166, 166, 166))" height="6.072782px" id="GwkBC8sK6" transform="translate(228.461 0.368)" width="6.072999999999979px"/></svg>