<svg display="block" role="presentation" viewBox="0 0 249 40" xmlns="http://www.w3.org/2000/svg"><path d="M 39.2 32 C 45.828 32 51.2 26.627 51.2 20 C 51.2 13.373 45.828 8 39.2 8 C 32.98 8 27.866 12.732 27.26 18.793 C 24.808 17.684 22.16 17.021 19.447 16.846 C 20.959 7.299 29.227 0 39.2 0 C 50.246 0 59.2 8.954 59.2 20 C 59.2 30.643 50.887 39.344 40.4 39.965 L 40.4 40 L 27.22 40 L 27.22 38.255 C 27.22 35.987 26.284 33.782 24.57 32.134 C 22.852 30.48 20.491 29.527 18 29.527 C 15.509 29.527 13.148 30.48 11.43 32.134 C 9.716 33.782 8.78 35.987 8.78 38.255 L 8.78 40 L 0 40 L 0 38.212 C 0 33.537 1.94 29.091 5.333 25.84 C 8.618 22.693 13.005 20.91 17.571 20.805 C 17.714 20.802 17.857 20.8 18 20.8 C 18.111 20.8 18.221 20.801 18.332 20.803 C 22.933 20.885 27.359 22.671 30.667 25.84 C 32.499 27.595 33.908 29.7 34.816 32 Z" fill="var(--token-8bb67e8f-99b1-47da-9543-9b889df907ed, rgb(166, 166, 166))" height="40px" id="n5PSLtYQX" width="59.2001px"/><path d="M 8.877 1.325 C 9.852 2.172 10.4 3.323 10.4 4.522 L 10.4 6.4 L 0 6.4 L 0 4.522 C 0 3.323 0.548 2.172 1.523 1.325 C 2.498 0.476 3.821 0 5.2 0 C 6.579 0 7.902 0.476 8.877 1.325 Z" fill="var(--token-8bb67e8f-99b1-47da-9543-9b889df907ed, rgb(166, 166, 166))" height="6.399999999999999px" id="VillA074j" transform="translate(12.8 33.6)" width="10.399999999999999px"/><path d="M 11.782 5.236 C 10.336 5.236 9.164 4.064 9.164 2.618 L 9.164 1.964 C 9.164 0.879 8.285 0 7.2 0 C 6.115 0 5.236 0.879 5.236 1.964 L 5.236 2.618 C 5.236 4.064 4.064 5.236 2.618 5.236 L 1.964 5.236 C 0.879 5.236 0 6.116 0 7.2 C 0 8.284 0.879 9.164 1.964 9.164 L 2.618 9.164 C 4.064 9.164 5.236 10.336 5.236 11.782 L 5.236 12.436 C 5.236 13.521 6.115 14.4 7.2 14.4 C 8.285 14.4 9.164 13.521 9.164 12.436 L 9.164 11.782 C 9.164 10.336 10.336 9.164 11.782 9.164 L 12.436 9.164 C 13.521 9.164 14.4 8.284 14.4 7.2 C 14.4 6.116 13.521 5.236 12.436 5.236 Z" fill="var(--token-8bb67e8f-99b1-47da-9543-9b889df907ed, rgb(166, 166, 166))" height="14.399999999999999px" id="wkMpWGsZW" transform="translate(32 12.8)" width="14.399999999999999px"/><path d="M 11.2 3.2 C 11.2 4.967 12.633 6.4 14.4 6.4 L 15.2 6.4 C 16.526 6.4 17.6 7.475 17.6 8.8 C 17.6 10.126 16.526 11.2 15.2 11.2 L 14.4 11.2 C 12.633 11.2 11.2 12.633 11.2 14.4 L 11.2 15.2 C 11.2 16.526 10.126 17.6 8.8 17.6 C 7.475 17.6 6.4 16.526 6.4 15.2 L 6.4 14.4 C 6.4 12.633 4.967 11.2 3.2 11.2 L 2.4 11.2 C 1.075 11.2 0 10.126 0 8.8 C 0 7.475 1.075 6.4 2.4 6.4 L 3.2 6.4 C 4.967 6.4 6.4 4.967 6.4 3.2 L 6.4 2.4 C 6.4 1.075 7.475 0 8.8 0 C 10.126 0 11.2 1.075 11.2 2.4 Z" fill="var(--token-8bb67e8f-99b1-47da-9543-9b889df907ed, rgb(166, 166, 166))" height="17.6px" id="HFqfxWeKl" width="17.6px"/><path d="M 22.327 0 C 28.336 0 31.236 4.198 31.236 9.06 L 31.236 18.191 L 24.947 18.191 L 24.947 10.145 C 24.947 7.941 24.144 6.122 21.838 6.122 C 19.532 6.122 18.763 7.941 18.763 10.145 L 18.763 18.191 L 12.474 18.191 L 12.474 10.145 C 12.474 7.941 11.705 6.122 9.399 6.122 C 7.093 6.122 6.29 7.941 6.29 10.145 L 6.29 18.191 L 0 18.191 L 0 9.06 C 0 4.198 2.9 0 8.91 0 C 12.194 0 14.57 1.294 15.653 3.428 C 16.806 1.294 19.322 0 22.327 0 Z" fill="var(--token-8bb67e8f-99b1-47da-9543-9b889df907ed, rgb(166, 166, 166))" height="18.190600000000003px" id="c4yi3OkxA" transform="translate(216.951 13.239)" width="31.23600000000002px"/><path d="M 9.189 11.894 C 11.216 11.894 12.089 10.04 12.089 7.836 L 12.089 0 L 18.378 0 L 18.378 8.606 C 18.378 13.748 15.373 18.016 9.189 18.016 C 3.005 18.016 0 13.748 0 8.606 L 0 0 L 6.289 0 L 6.289 7.836 C 6.289 10.04 7.163 11.894 9.189 11.894 Z" fill="var(--token-8bb67e8f-99b1-47da-9543-9b889df907ed, rgb(166, 166, 166))" height="18.015700000000002px" id="DMJt_u3w3" transform="translate(196.461 13.938)" width="18.377999999999986px"/><path d="M 8.001 18.61 C 4.053 18.61 1.503 17.246 0 14.587 L 4.542 12.034 C 5.171 13.153 6.115 13.713 7.687 13.713 C 8.98 13.713 9.574 13.258 9.574 12.698 C 9.574 10.565 0.35 12.733 0.35 5.947 C 0.35 2.659 3.145 0 7.897 0 C 12.054 0 14.326 2.029 15.339 3.988 L 10.797 6.577 C 10.412 5.527 9.224 4.897 8.036 4.897 C 7.128 4.897 6.639 5.282 6.639 5.807 C 6.639 7.976 15.863 5.982 15.863 12.559 C 15.863 16.232 12.264 18.61 8.001 18.61 Z" fill="var(--token-8bb67e8f-99b1-47da-9543-9b889df907ed, rgb(166, 166, 166))" height="18.6104px" id="sJThXBt87" transform="translate(179.212 13.379)" width="15.863px"/><path d="M 6.289 26.062 L 0 26.062 L 0 9.235 C 0 3.883 4.018 0 9.608 0 C 15.058 0 19.216 4.163 19.216 9.235 C 19.216 14.832 15.513 18.541 9.957 18.541 C 8.665 18.541 7.372 18.156 6.289 17.561 Z M 9.608 12.629 C 11.599 12.629 12.927 11.089 12.927 9.27 C 12.927 7.416 11.599 5.912 9.608 5.912 C 7.616 5.912 6.289 7.416 6.289 9.27 C 6.289 11.089 7.616 12.629 9.608 12.629 Z" fill="var(--token-8bb67e8f-99b1-47da-9543-9b889df907ed, rgb(166, 166, 166))" height="26.0616px" id="tO94UO_9J" transform="translate(158.952 13.414)" width="19.216000000000008px"/><path d="M 3.774 7.556 C 1.712 7.556 0 5.842 0 3.778 C 0 1.714 1.712 0 3.774 0 C 5.835 0 7.547 1.714 7.547 3.778 C 7.547 5.842 5.835 7.556 3.774 7.556 Z M 0.629 9.41 L 6.918 9.41 L 6.918 26.901 L 0.629 26.901 Z" fill="var(--token-8bb67e8f-99b1-47da-9543-9b889df907ed, rgb(166, 166, 166))" height="26.901080091857914px" id="QxZt3mLEU" transform="translate(148.878 4.528)" width="7.5470000000000255px"/><path d="M 9.609 18.575 C 4.158 18.575 0 14.377 0 9.27 C 0 4.198 4.158 0 9.609 0 C 15.059 0 19.217 4.198 19.217 9.27 C 19.217 14.377 15.059 18.575 9.609 18.575 Z M 9.609 12.663 C 11.6 12.663 12.928 11.124 12.928 9.305 C 12.928 7.451 11.6 5.912 9.609 5.912 C 7.617 5.912 6.289 7.451 6.289 9.305 C 6.289 11.124 7.617 12.663 9.609 12.663 Z" fill="var(--token-8bb67e8f-99b1-47da-9543-9b889df907ed, rgb(166, 166, 166))" height="18.575400000000002px" id="x8j23e44h" transform="translate(127.832 13.379)" width="19.217000000000013px"/><path d="M 9.085 26.586 C 4.752 26.586 1.608 24.662 0 21.234 L 5.206 18.435 C 5.765 19.625 6.814 20.849 8.98 20.849 C 11.251 20.849 12.753 19.415 12.928 16.896 C 12.09 17.631 10.762 18.191 8.77 18.191 C 3.914 18.191 0 14.448 0 9.2 C 0 4.128 4.158 0 9.609 0 C 15.199 0 19.217 3.883 19.217 9.235 L 19.217 16.162 C 19.217 22.458 14.85 26.586 9.085 26.586 Z M 9.504 12.279 C 11.391 12.279 12.823 10.984 12.823 9.06 C 12.823 7.171 11.391 5.912 9.504 5.912 C 7.652 5.912 6.185 7.171 6.185 9.06 C 6.185 10.984 7.652 12.279 9.504 12.279 Z" fill="var(--token-8bb67e8f-99b1-47da-9543-9b889df907ed, rgb(166, 166, 166))" height="26.5863px" id="EBJ0frrES" transform="translate(106.872 13.414)" width="19.217px"/><path d="M 9.608 18.575 C 4.158 18.575 0 14.377 0 9.27 C 0 4.198 4.158 0 9.608 0 C 15.058 0 19.216 4.198 19.216 9.27 C 19.216 14.377 15.058 18.575 9.608 18.575 Z M 9.608 12.663 C 11.6 12.663 12.928 11.124 12.928 9.305 C 12.928 7.451 11.6 5.912 9.608 5.912 C 7.617 5.912 6.289 7.451 6.289 9.305 C 6.289 11.124 7.617 12.663 9.608 12.663 Z" fill="var(--token-8bb67e8f-99b1-47da-9543-9b889df907ed, rgb(166, 166, 166))" height="18.575400000000002px" id="ng28Rmj8Z" transform="translate(86.596 13.379)" width="19.216499999999996px"/><path d="M 6.464 0 L 6.464 17.666 L 16.876 17.666 L 16.876 23.613 L 5.59 23.613 C 1.607 23.613 0 21.514 0 18.191 L 0 0 Z" fill="var(--token-8bb67e8f-99b1-47da-9543-9b889df907ed, rgb(166, 166, 166))" height="23.61278px" id="rieutpBGr" transform="translate(68.679 7.817)" width="16.875800000000012px"/></svg>